# File created by Blade
# Date/Time:  Tue Jan 27 17:16:36 2015
#---------------------------------------------------------
:version 1.10
:name HOM
:units
  mass 1.0
  length 1.000000
  angle deg
:documentation
     Acclaim Skeleton File
:root
   axis xyz
   order TX TY TZ RX RY RZ
   position 0.000000 0.000000 0.000000
   orientation 0 0 0
:bonedata
   begin
      id 1
      name Spine_dum
      direction 0.000000 1.000000 0.000000
      length 7.539951
      axis 0.0 0.0 0.0 xyz
   end
   begin
      id 2
      name LeftUpLeg_dum
      direction 1.000000 0.000000 0.000000
      length 3.345476
      axis 0.0 0.0 0.0 xyz
   end
   begin
      id 3
      name RightUpLeg_dum
      direction -1.000000 0.000000 0.000000
      length 3.345476
      axis 0.0 0.0 0.0 xyz
   end
   begin
      id 4
      name Spine
      direction 0.000000 1.000000 0.000000
      length 0.000000
      axis 0.0 0.0 0.0 xyz
      dof rx ry rz
   end
   begin
      id 5
      name Spine_dum1
      direction 0.000000 1.000000 0.000000
      length 15.093809
      axis 0.0 0.0 0.0 xyz
   end
   begin
      id 6
      name Spine_dum2
      direction 0.000000 1.000000 0.000000
      length 9.738928
      axis 0.0 0.0 0.0 xyz
   end
   begin
      id 7
      name Spine_dum3
      direction 0.000000 1.000000 0.000000
      length 9.738928
      axis 0.0 0.0 0.0 xyz
   end
   begin
      id 8
      name Head
      direction 0.000000 1.000000 0.000000
      length 4.527550
      axis 0.0 0.0 0.0 xyz
      dof rx ry rz
   end
   begin
      id 9
      name LeftShoulder
      direction 1.000000 0.000000 0.000000
      length 7.084015
      axis 0.0 0.0 -90.0 xyz
      dof rx ry rz
   end
   begin
      id 10
      name LeftArm
      direction 1.000000 0.000000 0.000000
      length 10.259319
      axis 0.0 0.0 -90.0 xyz
      dof rx ry rz
   end
   begin
      id 11
      name LeftForeArm
      direction 1.000000 0.000000 0.000000
      length 9.896984
      axis 0.0 0.0 -90.0 xyz
      dof ry rz rx
   end
   begin
      id 12
      name LeftHand
      direction 0.000000 0.000000 0.000000
      length 0.000000
      axis 0.0 0.0 -90.0 xyz
      dof rx ry rz
   end
   begin
      id 13
      name LeftHand_dum1
      direction 0.000000 0.000000 0.000000
      length 0.000000
      axis 0.0 0.0 -90.0 xyz
   end
   begin
      id 14
      name LeftHand_dum2
      direction 1.000000 0.000000 0.000000
      length 3.937000
      axis 0.0 0.0 -90.0 xyz
   end
   begin
      id 15
      name LeftHandThumb1
      direction 0.000000 0.000000 1.000000
      length 3.937000
      axis 0.0 0.0 -90.0 xyz
      dof rx rz ry
   end
   begin
      id 16
      name RightShoulder
      direction -1.000000 0.000000 0.000000
      length 7.084015
      axis 0.0 0.0 90.0 xyz
      dof rx ry rz
   end
   begin
      id 17
      name RightArm
      direction -1.000000 0.000000 0.000000
      length 10.259319
      axis 0.0 0.0 90.0 xyz
      dof rx ry rz
   end
   begin
      id 18
      name RightForeArm
      direction -1.000000 0.000000 0.000000
      length 9.896984
      axis 0.0 0.0 90.0 xyz
      dof ry rz rx
   end
   begin
      id 19
      name RightHand
      direction 0.000000 0.000000 0.000000
      length 0.000000
      axis 0.0 0.0 90.0 xyz
      dof rx ry rz
   end
   begin
      id 20
      name RightHand_dum1
      direction 0.000000 0.000000 0.000000
      length 0.000000
      axis 0.0 0.0 90.0 xyz
   end
   begin
      id 21
      name RightHand_dum2
      direction -1.000000 0.000000 0.000000
      length 3.937000
      axis 0.0 0.0 90.0 xyz
   end
   begin
      id 22
      name RightHandThumb1
      direction 0.000000 0.000000 1.000000
      length 3.937000
      axis 0.0 0.0 90.0 xyz
      dof rx rz ry
   end
   begin
      id 23
      name LeftUpLeg
      direction 0.000000 -1.000000 0.000000
      length 19.114733
      axis 0.0 0.0 0.0 xyz
      dof rx ry rz
   end
   begin
      id 24
      name LeftLeg
      direction 0.000000 -1.000000 0.000000
      length 16.045604
      axis 0.0 0.0 0.0 xyz
      dof rx ry rz
   end
   begin
      id 25
      name LeftFoot
      direction 0.000000 -0.258819 0.965926
      length 5.543155
      axis 15.0 0.0 0.0 xyz
      dof rx ry rz
   end
   begin
      id 26
      name LeftToeBase
      direction 0.000000 0.000000 1.000000
      length 2.952750
      axis 0.0 0.0 0.0 xyz
      dof rx ry rz
   end
   begin
      id 27
      name RightUpLeg
      direction 0.000000 -1.000000 0.000000
      length 19.114733
      axis 0.0 0.0 0.0 xyz
      dof rx ry rz
   end
   begin
      id 28
      name RightLeg
      direction 0.000000 -1.000000 0.000000
      length 16.045604
      axis 0.0 0.0 0.0 xyz
      dof rx ry rz
   end
   begin
      id 29
      name RightFoot
      direction 0.000000 -0.258819 0.965926
      length 5.543155
      axis 15.0 0.0 0.0 xyz
      dof rx ry rz
   end
   begin
      id 30
      name RightToeBase
      direction 0.000000 0.000000 1.000000
      length 2.952750
      axis 0.0 0.0 0.0 xyz
      dof rx ry rz
   end
:hierarchy
   begin
      root Spine_dum LeftUpLeg_dum RightUpLeg_dum
      Spine_dum Spine
      LeftUpLeg_dum LeftUpLeg
      RightUpLeg_dum RightUpLeg
      Spine Spine_dum1 Spine_dum2 Spine_dum3
      Spine_dum1 Head
      Spine_dum2 LeftShoulder
      Spine_dum3 RightShoulder
      LeftShoulder LeftArm
      LeftArm LeftForeArm
      LeftForeArm LeftHand
      LeftHand LeftHand_dum1 LeftHand_dum2
      LeftHand_dum1 LeftHandThumb1
      RightShoulder RightArm
      RightArm RightForeArm
      RightForeArm RightHand
      RightHand RightHand_dum1 RightHand_dum2
      RightHand_dum1 RightHandThumb1
      LeftUpLeg LeftLeg
      LeftLeg LeftFoot
      LeftFoot LeftToeBase
      RightUpLeg RightLeg
      RightLeg RightFoot
      RightFoot RightToeBase
   end

# File created by Blade
# Date/Time:  Tue Jan 27 17:16:27 2015
# Frame Rate: 120.000 fps
#------------------------------------------------------
:FULLY-SPECIFIED
:DEGREES
2920
root -1.712366 36.364388 2.025198 35.928294 71.522882 35.922529
Spine 17.582423 -7.311391 3.951260
Head -13.329750 -3.221520 2.315532
LeftShoulder 12.063582 -22.462154 10.566656
LeftArm 20.077252 -15.654169 -55.369938
LeftForeArm -1.019410 0.000000 65.931149
LeftHand -12.627641 -0.000000 61.298505
LeftHandThumb1 -26.253704 0.000000 33.147579
RightShoulder -1.167384 -14.980477 -2.916285
RightArm 3.922567 -5.570926 42.931131
RightForeArm -168.951910 -0.000000 31.689232
RightHand -0.077972 -0.000000 2.178218
RightHandThumb1 -24.326973 -0.000000 -32.862282
LeftUpLeg -104.011278 30.565402 -41.497250
LeftLeg 124.202988 -0.000000 -0.000000
LeftFoot 13.477941 -14.055785 -42.765857
LeftToeBase 16.397426 -0.000000 -0.000000
RightUpLeg -15.841871 -20.769644 -1.417740
RightLeg 32.592065 -0.000000 -0.000000
RightFoot -29.061834 -32.269943 11.856740
RightToeBase 4.245434 -0.000000 -0.000000
2921
root -1.694733 36.338644 2.041208 35.214492 71.203585 35.228585
Spine 17.583636 -7.116745 3.685694
Head -13.185672 -3.073664 2.212870
LeftShoulder 11.830293 -22.388083 10.632795
LeftArm 19.926822 -15.741520 -55.277863
LeftForeArm -0.928580 -0.000000 66.094216
LeftHand -12.708500 -0.000000 61.174509
LeftHandThumb1 -26.253704 0.000000 33.147579
RightShoulder -1.181366 -15.086237 -2.854698
RightArm 3.982291 -5.952505 43.041770
RightForeArm -168.728083 0.000000 31.946542
RightHand -0.239335 0.000000 1.877143
RightHandThumb1 -24.326973 -0.000000 -32.862282
LeftUpLeg -103.246069 31.110085 -39.834828
LeftLeg 123.938897 -0.000000 -0.000000
LeftFoot 13.714455 -14.058091 -42.837127
LeftToeBase 17.354716 -0.000000 -0.000000
RightUpLeg -15.937368 -20.744520 -1.403353
RightLeg 32.868753 -0.000000 -0.000000
RightFoot -29.178942 -32.044115 11.713842
RightToeBase 4.160560 -0.000000 -0.000000
2922
root -1.675371 36.317663 2.054338 34.629128 70.847469 34.657615
Spine 17.547961 -6.862853 3.403937
Head -12.997368 -2.935574 2.115139
LeftShoulder 11.687943 -22.280643 10.623653
LeftArm 19.730486 -15.794755 -55.059246
LeftForeArm -0.853612 -0.000000 66.330057
LeftHand -12.936335 -0.000000 61.297691
LeftHandThumb1 -26.253704 0.000000 33.147579
RightShoulder -1.218652 -15.239923 -2.807127
RightArm 4.004072 -6.258934 43.195988
RightForeArm -168.709400 -0.000000 32.193129
RightHand -0.308308 0.000000 1.946924
RightHandThumb1 -24.326973 -0.000000 -32.862282
LeftUpLeg -102.313560 31.656719 -37.970802
LeftLeg 123.575163 -0.000000 -0.000000
LeftFoot 13.854478 -13.846755 -42.966723
LeftToeBase 17.594028 -0.000000 -0.000000
RightUpLeg -16.027865 -20.841600 -1.428478
RightLeg 33.115832 -0.000000 -0.000000
RightFoot -29.230453 -31.716851 11.426817
RightToeBase 4.138609 -0.000000 -0.000000
2923
root -1.652855 36.305076 2.062928 34.142134 70.485578 34.187637
Spine 17.515192 -6.628412 3.151737
Head -12.875387 -2.786389 1.899013
LeftShoulder 11.471852 -22.118211 10.620817
LeftArm 19.627176 -15.831240 -54.940181
LeftForeArm -0.770516 -0.000000 66.545627
LeftHand -13.018870 -0.000000 61.174292
LeftHandThumb1 -26.253704 0.000000 33.147579
RightShoulder -1.250380 -15.367986 -2.826915
RightArm 4.015489 -6.475819 43.397255
RightForeArm -168.444094 -0.000000 32.383619
RightHand -0.295848 -0.000000 1.841912
RightHandThumb1 -24.326973 -0.000000 -32.862282
LeftUpLeg -101.149853 32.166058 -35.864729
LeftLeg 123.100006 -0.000000 -0.000000
LeftFoot 13.758095 -13.471472 -43.035183
LeftToeBase 17.911365 -0.000000 -0.000000
RightUpLeg -16.061509 -20.845110 -1.497205
RightLeg 33.256382 -0.000000 -0.000000
RightFoot -29.247992 -31.465617 11.167022
RightToeBase 4.078048 -0.000000 -0.000000
2924
root -1.630726 36.298107 2.069420 33.649053 70.068572 33.659847
Spine 17.384631 -6.336381 2.924608
Head -12.654887 -2.622168 1.625931
LeftShoulder 11.261167 -21.981090 10.559558
LeftArm 19.452415 -15.800903 -54.792853
LeftForeArm -0.759849 0.000000 66.741474
LeftHand -12.943793 -0.000000 60.817006
LeftHandThumb1 -26.253704 0.000000 33.147579
RightShoulder -1.267906 -15.514068 -2.834622
RightArm 3.953345 -6.694389 43.550743
RightForeArm -168.211878 0.000000 32.557079
RightHand -0.337816 -0.000000 1.695773
RightHandThumb1 -24.326973 -0.000000 -32.862282
LeftUpLeg -99.885043 32.691739 -33.559257
LeftLeg 122.543021 -0.000000 -0.000000
LeftFoot 13.472826 -13.144995 -42.766849
LeftToeBase 17.939187 -0.000000 -0.000000
RightUpLeg -16.137329 -20.794836 -1.560047
RightLeg 33.360853 -0.000000 -0.000000
RightFoot -29.260226 -31.182421 10.972285
RightToeBase 3.973226 -0.000000 -0.000000
2925
root -1.612397 36.297167 2.072582 33.315747 69.646415 33.261696
Spine 17.218823 -6.035605 2.682324
Head -12.408477 -2.525141 1.328752
LeftShoulder 11.025813 -21.831094 10.498273
LeftArm 19.388233 -15.730399 -54.681812
LeftForeArm -0.729313 -0.000000 66.846719
LeftHand -12.965859 -0.000000 60.811320
LeftHandThumb1 -26.253704 0.000000 33.147579
RightShoulder -1.303122 -15.636852 -2.868194
RightArm 3.871469 -6.932833 43.753941
RightForeArm -168.041664 -0.000000 32.636244
RightHand -0.532472 -0.000000 1.790441
RightHandThumb1 -24.326973 -0.000000 -32.862282
LeftUpLeg -98.523078 33.137988 -31.175107
LeftLeg 121.890528 -0.000000 -0.000000
LeftFoot 12.782905 -12.597878 -42.315593
LeftToeBase 18.135083 -0.000000 -0.000000
RightUpLeg -16.236960 -20.778317 -1.645383
RightLeg 33.418039 -0.000000 -0.000000
RightFoot -29.261264 -30.883092 10.789387
RightToeBase 3.976725 -0.000000 -0.000000
2926
root -1.587047 36.302188 2.075708 33.031228 69.258142 32.947393
Spine 17.079018 -5.745087 2.456895
Head -12.228878 -2.363448 1.079322
LeftShoulder 10.811233 -21.732590 10.442737
LeftArm 19.335092 -15.603453 -54.605576
LeftForeArm -0.598644 0.000000 66.852807
LeftHand -13.072686 -0.000000 61.116593
LeftHandThumb1 -26.253704 0.000000 33.147579
RightShoulder -1.401326 -15.763970 -2.857725
RightArm 3.799783 -7.064256 43.914310
RightForeArm -167.752845 -0.000000 32.726511
RightHand -0.364475 -0.000000 1.840882
RightHandThumb1 -24.326973 -0.000000 -32.862282
LeftUpLeg -96.951698 33.509960 -28.576655
LeftLeg 121.167746 -0.000000 -0.000000
LeftFoot 11.912221 -11.841034 -41.903559
LeftToeBase 18.414653 -0.000000 -0.000000
RightUpLeg -16.260235 -20.843557 -1.758133
RightLeg 33.420271 -0.000000 -0.000000
RightFoot -29.239519 -30.524730 10.620015
RightToeBase 3.913324 -0.000000 -0.000000
2927
root -1.564256 36.313186 2.073696 32.903666 68.808205 32.748801
Spine 16.858514 -5.431365 2.172524
Head -11.948513 -2.229590 0.808167
LeftShoulder 10.651872 -21.628006 10.368654
LeftArm 19.191122 -15.518842 -54.493652
LeftForeArm -0.625798 0.000000 66.846633
LeftHand -12.934815 -0.000000 60.706258
LeftHandThumb1 -26.253704 0.000000 33.147579
RightShoulder -1.418330 -15.843727 -2.890101
RightArm 3.619063 -7.231935 44.132813
RightForeArm -167.533751 0.000000 32.732752
RightHand -0.418888 -0.000000 1.862741
RightHandThumb1 -24.326973 -0.000000 -32.862282
LeftUpLeg -95.330597 33.793565 -25.967119
LeftLeg 120.365193 -0.000000 -0.000000
LeftFoot 10.530122 -10.999699 -40.661576
LeftToeBase 18.760111 -0.000000 -0.000000
RightUpLeg -16.354238 -20.915268 -1.918981
RightLeg 33.425714 -0.000000 -0.000000
RightFoot -29.176843 -30.146442 10.427797
RightToeBase 3.805392 -0.000000 -0.000000
2928
root -1.540915 36.327730 2.072439 32.881499 68.298964 32.630298
Spine 16.591244 -5.074398 1.801696
Head -11.713688 -2.060436 0.609849
LeftShoulder 10.482503 -21.520540 10.323143
LeftArm 19.079178 -15.373399 -54.347737
LeftForeArm -0.552901 -0.000000 66.758778
LeftHand -12.921153 0.000000 60.533044
LeftHandThumb1 -26.253704 0.000000 33.147579
RightShoulder -1.471235 -15.944405 -2.855300
RightArm 3.465436 -7.349084 44.319958
RightForeArm -167.510136 -0.000000 32.725205
RightHand -0.386484 -0.000000 2.013173
RightHandThumb1 -24.326973 -0.000000 -32.862282
LeftUpLeg -93.601172 34.035594 -23.263207
LeftLeg 119.514622 -0.000000 -0.000000
LeftFoot 9.216194 -9.999305 -39.836831
LeftToeBase 19.085669 -0.000000 -0.000000
RightUpLeg -16.468463 -20.891455 -2.123889
RightLeg 33.397156 -0.000000 -0.000000
RightFoot -29.140356 -29.797661 10.327615
RightToeBase 3.712288 -0.000000 -0.000000
2929
root -1.518047 36.346848 2.069332 32.904371 67.793476 32.561639
Spine 16.324512 -4.712393 1.418813
Head -11.475863 -1.928055 0.443914
LeftShoulder 10.331730 -21.410216 10.261126
LeftArm 19.025034 -15.183145 -54.137703
LeftForeArm -0.540781 -0.000000 66.593793
LeftHand -12.987148 -0.000000 60.841828
LeftHandThumb1 -26.253704 0.000000 33.147579
RightShoulder -1.539449 -16.060019 -2.847530
RightArm 3.356861 -7.381774 44.556909
RightForeArm -167.536861 0.000000 32.640374
RightHand -0.290842 -0.000000 2.163285
RightHandThumb1 -24.326973 -0.000000 -32.862282
LeftUpLeg -91.745080 34.182748 -20.435821
LeftLeg 118.635541 -0.000000 -0.000000
LeftFoot 7.795120 -8.908678 -39.037343
LeftToeBase 19.656484 -0.000000 -0.000000
RightUpLeg -16.575085 -20.898563 -2.344025
RightLeg 33.350294 -0.000000 -0.000000
RightFoot -29.073984 -29.412727 10.249262
RightToeBase 3.522190 -0.000000 -0.000000
2930
root -1.495438 36.372170 2.063536 33.014058 67.255914 32.592757
Spine 16.085062 -4.352055 0.972366
Head -11.304777 -1.733120 0.326267
LeftShoulder 10.150848 -21.323027 10.229175
LeftArm 18.984499 -15.007963 -53.993413
LeftForeArm -0.596309 -0.000000 66.422004
LeftHand -12.841616 -0.000000 60.596007
LeftHandThumb1 -26.253704 0.000000 33.147579
RightShoulder -1.613957 -16.115470 -2.839318
RightArm 3.247087 -7.412179 44.808122
RightForeArm -167.611353 -0.000000 32.511030
RightHand -0.158639 0.000000 2.142088
RightHandThumb1 -24.326973 -0.000000 -32.862282
LeftUpLeg -89.783795 34.249158 -17.569455
LeftLeg 117.708937 -0.000000 -0.000000
LeftFoot 6.415482 -7.647457 -38.458522
LeftToeBase 19.101897 -0.000000 -0.000000
RightUpLeg -16.665066 -20.902727 -2.618559
RightLeg 33.258745 -0.000000 -0.000000
RightFoot -29.003841 -29.044662 10.167433
RightToeBase 3.411006 -0.000000 -0.000000
2931
root -1.474102 36.400219 2.059967 33.141528 66.713840 32.622907
Spine 15.816708 -3.994308 0.506785
Head -11.133399 -1.556943 0.228216
LeftShoulder 10.023502 -21.237949 10.188932
LeftArm 18.884083 -14.824776 -53.760544
LeftForeArm -0.620811 -0.000000 66.269448
LeftHand -12.900941 -0.000000 60.415255
LeftHandThumb1 -26.253704 0.000000 33.147579
RightShoulder -1.703257 -16.217231 -2.781716
RightArm 3.127902 -7.587930 44.972040
RightForeArm -167.396770 -0.000000 32.462146
RightHand -0.085072 -0.000000 2.392882
RightHandThumb1 -24.326973 -0.000000 -32.862282
LeftUpLeg -87.841945 34.227332 -14.734750
LeftLeg 116.758284 -0.000000 -0.000000
LeftFoot 4.676188 -6.133271 -37.031413
LeftToeBase 18.742561 -0.000000 -0.000000
RightUpLeg -16.766910 -20.899511 -2.880423
RightLeg 33.145455 -0.000000 -0.000000
RightFoot -28.830505 -28.779510 9.803773
RightToeBase 3.507846 -0.000000 -0.000000
